<svg width="269" height="134" viewBox="0 0 269 134" fill="none" xmlns="http://www.w3.org/2000/svg"><path d="M255.369 112.681h5.78C262.334 112.681 263.352 112.858 264.204 113.213 265.062 113.568 265.722 114.093 266.183 114.788 266.645 115.484 266.875 116.339 266.875 117.353 266.875 118.184 266.733 118.897 266.449 119.493 266.173 120.082 265.779 120.575 265.268 120.972 264.764 121.363 264.172 121.675 263.49 121.909L262.479 122.441h-5.024L257.434 119.951H261.17C261.731 119.951 262.195 119.851 262.564 119.652 262.933 119.454 263.21 119.177 263.395 118.822 263.586 118.467 263.682 118.056 263.682 117.588 263.682 117.091 263.59 116.661 263.405 116.3 263.221 115.938 262.94 115.661 262.564 115.469 262.188 115.278 261.716 115.182 261.149 115.182H258.562v12.996H255.369V112.681zM264.033 128.178 260.499 121.27 263.874 121.249 267.45 128.029V128.178H264.033z" fill="#B22222"/><path d="M247.354 122.654H243.405v-2.491H247.354C247.964 120.163 248.461 120.064 248.844 119.865 249.227 119.66 249.508 119.376 249.685 119.014 249.862 118.652 249.951 118.244 249.951 117.79 249.951 117.329 249.862 116.899 249.685 116.502 249.508 116.104 249.227 115.785 248.844 115.544 248.461 115.303 247.964 115.182 247.354 115.182H244.512v12.996H241.319V112.681H247.354C248.567 112.681 249.607 112.901 250.473 113.341 251.346 113.773 252.013 114.373 252.474 115.139 252.935 115.906 253.166 116.782 253.166 117.768 253.166 118.769 252.935 119.635 252.474 120.366 252.013 121.097 251.346 121.661 250.473 122.058 249.607 122.455 248.567 122.654 247.354 122.654z" fill="#B22222"/><path d="M233.144 120.323V122.729H227.13V120.323H233.144z" fill="#B22222"/><path d="M216.22 125.581V120.451C216.22 120.082 216.16 119.766 216.039 119.503 215.919 119.234 215.731 119.024 215.475 118.875 215.227 118.726 214.904 118.652 214.506 118.652 214.166 118.652 213.871 118.712 213.623 118.833 213.375 118.946 213.183 119.113 213.048 119.333 212.913 119.546 212.846 119.798 212.846 120.089H209.78C209.78 119.599 209.894 119.134 210.121 118.694 210.348 118.255 210.678 117.868 211.111 117.534 211.544 117.194 212.058 116.928 212.654 116.736 213.258 116.544 213.932 116.449 214.677 116.449 215.571 116.449 216.366 116.598 217.061 116.896S218.303 117.641 218.7 118.237C219.105 118.833 219.307 119.578 219.307 120.472V125.4C219.307 126.032 219.346 126.55 219.424 126.954 219.502 127.352 219.616 127.699 219.765 127.997V128.178H216.667C216.518 127.866 216.405 127.476 216.327 127.008 216.256 126.532 216.22 126.057 216.22 125.581zM216.625 121.164 216.646 122.899h-1.714C214.528 122.899 214.176 122.945 213.878 123.037 213.58 123.13 213.336 123.261 213.144 123.431 212.952 123.594 212.81 123.786 212.718 124.006 212.633 124.226 212.591 124.467 212.591 124.73 212.591 124.992 212.651 125.23 212.771 125.443 212.892 125.649 213.066 125.812 213.293 125.932 213.52 126.046 213.786 126.103 214.091 126.103 214.553 126.103 214.953 126.011 215.294 125.826 215.635 125.642 215.897 125.414 216.082 125.145 216.273 124.875 216.373 124.62 216.38 124.378L217.189 125.677C217.075 125.968 216.919 126.27 216.72 126.582 216.529 126.894 216.284 127.188 215.986 127.465 215.688 127.735 215.33 127.958 214.911 128.136 214.492 128.306 213.996 128.391 213.421 128.391 212.69 128.391 212.026 128.246 211.43 127.955 210.841 127.657 210.373 127.249 210.025 126.731 209.685 126.206 209.514 125.61 209.514 124.943 209.514 124.339 209.628 123.804 209.855 123.335 210.082 122.867 210.416 122.473 210.856 122.154 211.303 121.827 211.86 121.583 212.527 121.419 213.194 121.249 213.967 121.164 214.847 121.164H216.625z" fill="#B22222"/><path d="M200.786 119.12V128.178h-3.065V116.661h2.874L200.786 119.12zM200.339 122.015H199.509C199.509 121.164 199.619 120.398 199.839 119.716 200.059 119.028 200.368 118.443 200.765 117.96 201.162 117.47 201.634 117.098 202.181 116.842 202.734 116.58 203.351 116.449 204.033 116.449 204.572 116.449 205.065 116.527 205.512 116.683 205.959 116.839 206.342 117.087 206.662 117.428 206.988 117.768 207.237 118.219 207.407 118.78 207.584 119.34 207.673 120.025 207.673 120.834V128.178H204.586v-7.355C204.586 120.312 204.515 119.915 204.373 119.631S204.022 119.149 203.745 119.035C203.476 118.914 203.142 118.854 202.745 118.854 202.333 118.854 201.975 118.936 201.67 119.099 201.372 119.262 201.123 119.489 200.925 119.78 200.733 120.064 200.588 120.398 200.488 120.781 200.389 121.164 200.339 121.575 200.339 122.015z" fill="#B22222"/><path d="M195.251 116.661v11.517H192.175V116.661H195.251zm-3.267-3.001C191.984 113.213 192.14 112.844 192.452 112.553S193.183 112.116 193.708 112.116C194.226 112.116 194.641 112.262 194.953 112.553 195.273 112.844 195.432 113.213 195.432 113.66S195.273 114.476 194.953 114.767C194.641 115.058 194.226 115.203 193.708 115.203 193.183 115.203 192.764 115.058 192.452 114.767 192.14 114.476 191.984 114.107 191.984 113.66z" fill="#B22222"/><path d="M187.098 119.173v9.005h-3.066V116.661H186.917L187.098 119.173zm3.47-2.586L190.515 119.429C190.366 119.408 190.185 119.39 189.972 119.376 189.766 119.354 189.578 119.344 189.408 119.344 188.975 119.344 188.599 119.401 188.279 119.514 187.967 119.621 187.705 119.78 187.492 119.993 187.286 120.206 187.13 120.465 187.023 120.77 186.924 121.075 186.867 121.423 186.853 121.813L186.236 121.622C186.236 120.877 186.31 120.192 186.459 119.567 186.608 118.936 186.825 118.386 187.109 117.917 187.4 117.449 187.754 117.087 188.173 116.832 188.592 116.576 189.071 116.449 189.61 116.449 189.78 116.449 189.954 116.463 190.132 116.491 190.309 116.512 190.454 116.544 190.568 116.587z" fill="#B22222"/><path d="M178.551 125.666V111.829H181.638v16.349h-2.779L178.551 125.666zM171.27 122.558V122.335C171.27 121.455 171.37 120.657 171.568 119.94 171.767 119.216 172.058 118.595 172.441 118.077S173.296 117.158 173.857 116.874C174.417 116.591 175.056 116.449 175.773 116.449 176.447 116.449 177.036 116.591 177.54 116.874 178.051 117.158 178.483 117.563 178.838 118.088 179.2 118.606 179.491 119.22 179.711 119.929 179.931 120.632 180.091 121.402 180.19 122.239V122.729C180.091 123.53 179.931 124.276 179.711 124.964S179.2 126.255 178.838 126.773C178.483 127.284 178.051 127.682 177.54 127.966 177.029 128.249 176.433 128.391 175.751 128.391 175.035 128.391 174.396 128.246 173.835 127.955 173.282 127.664 172.814 127.256 172.43 126.731 172.054 126.206 171.767 125.588 171.568 124.879 171.37 124.169 171.27 123.396 171.27 122.558zM174.336 122.335V122.558C174.336 123.034 174.371 123.477 174.442 123.889 174.52 124.3 174.644 124.666 174.815 124.985 174.992 125.297 175.219 125.542 175.496 125.72 175.78 125.89 176.124 125.975 176.528 125.975 177.054 125.975 177.486 125.858 177.827 125.624 178.168 125.383 178.427 125.053 178.604 124.634 178.788 124.215 178.895 123.733 178.923 123.186V121.792C178.902 121.345 178.838 120.944 178.732 120.589 178.632 120.227 178.483 119.919 178.285 119.663 178.093 119.408 177.852 119.209 177.561 119.067 177.277 118.925 176.94 118.854 176.55 118.854 176.152 118.854 175.812 118.946 175.528 119.131 175.244 119.308 175.013 119.553 174.836 119.865 174.666 120.178 174.538 120.547 174.453 120.972 174.375 121.391 174.336 121.845 174.336 122.335z" fill="#B22222"/><path d="M162.531 119.12V128.178h-3.065V116.661h2.874L162.531 119.12zM162.084 122.015H161.254C161.254 121.164 161.364 120.398 161.584 119.716 161.804 119.028 162.113 118.443 162.51 117.96 162.908 117.47 163.379 117.098 163.926 116.842 164.479 116.58 165.097 116.449 165.778 116.449 166.317 116.449 166.81 116.527 167.257 116.683 167.704 116.839 168.088 117.087 168.407 117.428 168.733 117.768 168.982 118.219 169.152 118.78 169.329 119.34 169.418 120.025 169.418 120.834V128.178H166.331v-7.355C166.331 120.312 166.26 119.915 166.119 119.631 165.977 119.347 165.767 119.149 165.491 119.035 165.221 118.914 164.887 118.854 164.49 118.854 164.078 118.854 163.72 118.936 163.415 119.099 163.117 119.262 162.869 119.489 162.67 119.78 162.478 120.064 162.333 120.398 162.233 120.781 162.134 121.164 162.084 121.575 162.084 122.015z" fill="#B22222"/><path d="M146.736 122.537V122.313C146.736 121.469 146.856 120.692 147.098 119.982 147.339 119.266 147.69 118.645 148.151 118.12 148.613 117.595 149.18 117.187 149.854 116.896 150.529 116.598 151.302 116.449 152.175 116.449 153.048 116.449 153.825 116.598 154.506 116.896 155.187 117.187 155.758 117.595 156.22 118.12 156.688 118.645 157.043 119.266 157.284 119.982 157.525 120.692 157.646 121.469 157.646 122.313V122.537C157.646 123.374 157.525 124.151 157.284 124.868 157.043 125.578 156.688 126.199 156.22 126.731 155.758 127.256 155.191 127.664 154.516 127.955 153.842 128.246 153.069 128.391 152.196 128.391S150.546 128.246 149.865 127.955C149.191 127.664 148.62 127.256 148.151 126.731 147.69 126.199 147.339 125.578 147.098 124.868 146.856 124.151 146.736 123.374 146.736 122.537zM149.801 122.313V122.537C149.801 123.02 149.844 123.47 149.929 123.889 150.014 124.307 150.149 124.676 150.333 124.996 150.525 125.308 150.773 125.553 151.078 125.73 151.384 125.908 151.756 125.996 152.196 125.996 152.622 125.996 152.987 125.908 153.292 125.73 153.598 125.553 153.842 125.308 154.027 124.996 154.211 124.676 154.346 124.307 154.431 123.889 154.524 123.47 154.57 123.02 154.57 122.537V122.313C154.57 121.845 154.524 121.405 154.431 120.994 154.346 120.575 154.208 120.206 154.016 119.887 153.832 119.56 153.587 119.305 153.282 119.12 152.977 118.936 152.608 118.844 152.175 118.844 151.742 118.844 151.373 118.936 151.068 119.12 150.77 119.305 150.525 119.56 150.333 119.887 150.149 120.206 150.014 120.575 149.929 120.994 149.844 121.405 149.801 121.845 149.801 122.313z" fill="#B22222"/><path d="M145.586 125.688v2.49H137.784v-2.49H145.586zM138.816 112.681v15.497H135.623V112.681H138.816z" fill="#B22222"/><path d="M120.372 111.042H120.944V113.999H120.729C119.895 113.999 119.132 114.118 118.44 114.356 117.757 114.595 117.165 114.949 116.664 115.417 116.163 115.878 115.778 116.451 115.508 117.134 115.245 117.81 115.114 118.589 115.114 119.471v2.956C115.114 123.023 115.166 123.544 115.269 123.989 115.381 124.426 115.539 124.792 115.746 125.086 115.961 125.372 116.219 125.59 116.521 125.741 116.823 125.884 117.165 125.956 117.546 125.956 117.888 125.956 118.202 125.88 118.488 125.729S119.021 125.364 119.227 125.086C119.434 124.807 119.593 124.486 119.704 124.12 119.815 123.746 119.871 123.341 119.871 122.904 119.871 122.443 119.811 122.026 119.692 121.652 119.581 121.271 119.418 120.945 119.203 120.675 118.997 120.405 118.742 120.198 118.44 120.055 118.138 119.904 117.805 119.828 117.439 119.828 116.914 119.828 116.461 119.948 116.08 120.186 115.698 120.424 115.404 120.73 115.198 121.104 114.991 121.477 114.884 121.859 114.876 122.248L113.886 121.426C113.886 120.885 113.994 120.353 114.208 119.828 114.431 119.296 114.745 118.815 115.15 118.386 115.555 117.949 116.052 117.603 116.64 117.349 117.236 117.086 117.916 116.955 118.679 116.955 119.481 116.955 120.189 117.11 120.801 117.42 121.413 117.722 121.925 118.143 122.339 118.684 122.76 119.224 123.074 119.856 123.28 120.579 123.495 121.295 123.602 122.062 123.602 122.88 123.602 123.723 123.455 124.509 123.161 125.241 122.875 125.964 122.47 126.596 121.945 127.136 121.421 127.677 120.793 128.098 120.062 128.4 119.338 128.702 118.532 128.853 117.642 128.853 116.72 128.853 115.877 128.69 115.114 128.364 114.359 128.038 113.7 127.573 113.135 126.969 112.579 126.357 112.146 125.626 111.836 124.776 111.534 123.925 111.383 122.972 111.383 121.915V120.52C111.383 119.073 111.605 117.77 112.05 116.61 112.503 115.449 113.131 114.456 113.934 113.629 114.745 112.795 115.698 112.155 116.795 111.71 117.892 111.265 119.084 111.042 120.372 111.042z" fill="#2E8B57"/><path d="M109.32 125.717V128.614H97.3276v-2.455L102.931 120.222C103.455 119.618 103.872 119.085 104.182 118.624 104.5 118.163 104.731 117.746 104.874 117.373 105.017 116.991 105.088 116.641 105.088 116.323 105.088 115.807 105.005 115.37 104.838 115.012 104.679 114.654 104.445 114.38 104.135 114.19 103.825 113.999 103.447 113.903 103.002 113.903 102.525 113.903 102.116 114.027 101.774 114.273 101.433 114.519 101.17 114.861 100.987 115.298 100.805 115.727 100.713 116.216 100.713 116.765H96.97C96.97 115.708 97.2243 114.746 97.7329 113.88 98.2416 113.005 98.9529 112.31 99.8669 111.793 100.781 111.269 101.85 111.007 103.074 111.007 104.329 111.007 105.382 111.205 106.233 111.603 107.083 112 107.727 112.568 108.164 113.307S108.82 114.937 108.82 115.978C108.82 116.566 108.724 117.134 108.534 117.682 108.351 118.231 108.085 118.775 107.735 119.316 107.385 119.856 106.964 120.409 106.471 120.973 105.979 121.529 105.422 122.117 104.802 122.737l-2.622 2.98H109.32z" fill="#2E8B57"/><path d="M95.0983 118.386V121.474C95.0983 122.745 94.9553 123.846 94.6692 124.776 94.391 125.706 93.9857 126.473 93.4532 127.077 92.9286 127.681 92.3008 128.13 91.5696 128.424 90.8464 128.71 90.0437 128.853 89.1615 128.853 88.4542 128.853 87.7945 128.761 87.1826 128.579 86.5706 128.396 86.0182 128.114 85.5255 127.732 85.0407 127.343 84.6234 126.858 84.2737 126.278 83.9241 125.698 83.6538 125.006 83.4631 124.203 83.2803 123.401 83.1889 122.491 83.1889 121.474V118.386C83.1889 117.098 83.328 115.994 83.6062 115.072 83.8923 114.15 84.3016 113.387 84.8341 112.783 85.3665 112.179 85.9944 111.734 86.7176 111.448 87.4488 111.162 88.2555 111.018 89.1377 111.018 89.845 111.018 90.5007 111.11 91.1047 111.293 91.7166 111.475 92.269 111.758 92.7617 112.139 93.2545 112.521 93.6717 113.001 94.0135 113.582 94.3632 114.162 94.6294 114.853 94.8122 115.656 95.003 116.451 95.0983 117.361 95.0983 118.386zM91.3789 121.938v-4.041C91.3789 117.301 91.3431 116.784 91.2716 116.347 91.208 115.902 91.1126 115.525 90.9855 115.215 90.8663 114.905 90.7153 114.654 90.5325 114.464 90.3497 114.273 90.1391 114.134 89.9006 114.047 89.6701 113.951 89.4158 113.903 89.1377 113.903 88.788 113.903 88.474 113.975 88.1959 114.118 87.9177 114.261 87.6833 114.488 87.4925 114.798 87.3018 115.1 87.1547 115.509 87.0514 116.025 86.9561 116.534 86.9084 117.158 86.9084 117.897v4.041C86.9084 122.535 86.9402 123.055 87.0037 123.5 87.0753 123.945 87.1706 124.327 87.2898 124.645 87.417 124.955 87.572 125.209 87.7548 125.408 87.9376 125.598 88.1482 125.737 88.3866 125.825 88.625 125.912 88.8833 125.956 89.1615 125.956 89.5112 125.956 89.8211 125.888 90.0914 125.753 90.3616 125.61 90.5921 125.384 90.7828 125.074 90.9815 124.756 91.1285 124.339 91.2239 123.822 91.3272 123.305 91.3789 122.678 91.3789 121.938z" fill="#2E8B57"/><path d="M81.1384 125.717V128.614H69.1455v-2.455L74.7486 120.222C75.2731 119.618 75.6904 119.085 76.0003 118.624 76.3182 118.163 76.5487 117.746 76.6918 117.372 76.8348 116.991 76.9063 116.641 76.9063 116.323 76.9063 115.807 76.8229 115.37 76.656 115.012 76.497 114.654 76.2626 114.38 75.9526 114.189 75.6427 113.999 75.2652 113.903 74.8201 113.903 74.3433 113.903 73.934 114.027 73.5922 114.273 73.2505 114.519 72.9882 114.861 72.8054 115.298 72.6226 115.727 72.5312 116.216 72.5312 116.764H68.7879C68.7879 115.707 69.0422 114.746 69.5509 113.88 70.0595 113.005 70.7708 112.31 71.6848 111.793 72.5988 111.269 73.6677 111.006 74.8916 111.006 76.1474 111.006 77.2004 111.205 78.0508 111.603 78.9012 112 79.5449 112.568 79.9821 113.307 80.4192 114.046 80.6377 114.937 80.6377 115.978 80.6377 116.566 80.5424 117.134 80.3516 117.682 80.1688 118.231 79.9026 118.775 79.5529 119.316 79.2032 119.856 78.782 120.408 78.2892 120.973 77.7965 121.529 77.2401 122.117 76.6202 122.737L73.9975 125.717h7.1409z" fill="#2E8B57"/><path d="M75.118 66.7988C79.2172 66.7988 82.3644 67.5261 84.5595 68.9807 86.7547 70.4088 87.8522 72.7626 87.8522 76.042 87.8522 79.3479 86.7414 81.7414 84.5199 83.2224 82.2983 84.677 79.1247 85.4043 74.9989 85.4043H73.0551V94.6078H66.8665V67.5129C68.2153 67.2484 69.6434 67.0633 71.1509 66.9575 72.6584 66.8517 73.9807 66.7988 75.118 66.7988zM75.5147 72.075C75.0651 72.075 74.6155 72.0882 74.1659 72.1146 73.7427 72.1411 73.3725 72.1675 73.0551 72.194v7.9341H74.9989C77.1412 80.1281 78.7544 79.8372 79.8388 79.2553 80.9231 78.6735 81.4652 77.5892 81.4652 76.0024 81.4652 75.2354 81.3198 74.6007 81.0289 74.0982 80.7644 73.5957 80.3677 73.199 79.8388 72.9081 79.3363 72.5907 78.7148 72.3791 77.9742 72.2733 77.2337 72.1411 76.4139 72.075 75.5147 72.075z" fill="#B22222"/><path d="M111.301 73.7411C110.111 77.7611 108.868 81.5298 107.572 85.0472 106.276 88.5647 104.861 91.9764 103.327 95.2822 102.772 96.4724 102.216 97.4774 101.661 98.2972 101.106 99.1435 100.497 99.8311 99.8361 100.36 99.1749 100.915 98.4212 101.312 97.5749 101.55 96.755 101.815 95.7897 101.947 94.6789 101.947 93.7533 101.947 92.8938 101.854 92.1004 101.669 91.3334 101.511 90.6987 101.325 90.1962 101.114L91.2276 96.393C91.8359 96.6046 92.3781 96.7501 92.8541 96.8294 93.3301 96.9087 93.8326 96.9484 94.3616 96.9484 95.4195 96.9484 96.2261 96.6575 96.7815 96.0757 97.3633 95.5203 97.8526 94.7401 98.2493 93.7351 96.9005 91.0904 95.5517 88.1283 94.2029 84.8489 92.8541 81.543 91.5846 77.8404 90.3945 73.7411h6.268C96.9269 74.7726 97.2311 75.8966 97.5749 77.1131 97.9452 78.3033 98.3286 79.5198 98.7253 80.7628 99.122 81.9794 99.5188 83.1695 99.9155 84.3332 100.339 85.4968 100.735 86.5547 101.106 87.5068 101.449 86.5547 101.806 85.4968 102.177 84.3332 102.547 83.1695 102.904 81.9794 103.248 80.7628 103.618 79.5198 103.962 78.3033 104.279 77.1131 104.623 75.8966 104.927 74.7726 105.192 73.7411H111.301z" fill="#B22222"/><path d="M114.271 68.5443 120.182 67.5922v6.1489h7.101v4.9192h-7.101v7.339C120.182 87.2423 120.394 88.2341 120.817 88.9746 121.266 89.7151 122.152 90.0854 123.475 90.0854 124.11 90.0854 124.757 90.0325 125.419 89.9267 126.106 89.7945 126.728 89.6226 127.283 89.411L128.116 94.0128C127.402 94.3037 126.609 94.555 125.736 94.7665 124.863 94.9781 123.792 95.0839 122.523 95.0839 120.909 95.0839 119.574 94.8723 118.516 94.4492 117.458 93.9996 116.612 93.3913 115.977 92.6243 115.342 91.8309 114.893 90.8788 114.628 89.768 114.39 88.6573 114.271 87.4275 114.271 86.0787V68.5443z" fill="#B22222"/><path d="M132.097 94.6078V64.7756L138.008 63.8235V73.8205C138.404 73.6882 138.907 73.5692 139.515 73.4634 140.15 73.3312 140.758 73.2651 141.34 73.2651 143.032 73.2651 144.434 73.5031 145.545 73.9792 146.682 74.4288 147.581 75.0767 148.243 75.923 148.93 76.7693 149.406 77.7743 149.671 78.938 149.962 80.1017 150.107 81.3976 150.107 82.8257V94.6078h-5.911V83.5398C144.196 81.6356 143.945 80.2868 143.442 79.4934 142.966 78.7 142.067 78.3033 140.745 78.3033 140.216 78.3033 139.713 78.3561 139.237 78.4619 138.788 78.5413 138.378 78.6338 138.008 78.7396V94.6078h-5.911z" fill="#B22222"/><path d="M179.554 74.4552C180.559 74.1643 181.855 73.8998 183.442 73.6618 185.029 73.3973 186.695 73.2651 188.44 73.2651 190.212 73.2651 191.68 73.5031 192.844 73.9792 194.034 74.4288 194.973 75.0767 195.66 75.923 196.348 76.7693 196.837 77.7743 197.128 78.938 197.419 80.1017 197.565 81.3976 197.565 82.8257V94.6078h-5.911V83.5398C191.654 81.6356 191.402 80.2868 190.9 79.4934 190.397 78.7 189.458 78.3033 188.083 78.3033 187.66 78.3033 187.21 78.3297 186.734 78.3826 186.258 78.409 185.835 78.4487 185.465 78.5016V94.6078h-5.911V74.4552z" fill="#B22222"/><path d="M220.339 89.8871C221.212 89.8871 221.926 89.8209 222.482 89.6887 223.063 89.53 223.526 89.3317 223.87 89.0936 224.214 88.8292 224.452 88.525 224.584 88.1812S224.783 87.4539 224.783 87.0308C224.783 86.1316 224.359 85.3911 223.513 84.8092 222.667 84.2009 221.212 83.553 219.149 82.8654 218.25 82.548 217.351 82.191 216.452 81.7943 215.553 81.3711 214.746 80.8554 214.032 80.2471 213.318 79.6124 212.736 78.8586 212.286 77.9859 211.837 77.0867 211.612 76.0024 211.612 74.7329 211.612 73.4634 211.85 72.3262 212.326 71.3212 212.802 70.2898 213.476 69.417 214.349 68.703 215.222 67.9889 216.28 67.4467 217.523 67.0765 218.766 66.6798 220.168 66.4814 221.728 66.4814 223.579 66.4814 225.179 66.6798 226.528 67.0765 227.877 67.4732 228.988 67.9096 229.86 68.3856L228.075 73.2651C227.308 72.8684 226.449 72.5246 225.497 72.2337 224.571 71.9163 223.447 71.7576 222.125 71.7576 220.644 71.7576 219.572 71.9692 218.911 72.3923 218.277 72.789 217.959 73.4106 217.959 74.2569 217.959 74.7593 218.078 75.1825 218.316 75.5263 218.554 75.8701 218.885 76.1875 219.308 76.4784 219.758 76.7429 220.26 76.9941 220.815 77.2321 221.397 77.4437 222.032 77.6685 222.72 77.9065 224.148 78.4355 225.391 78.9644 226.449 79.4934 227.507 79.9959 228.379 80.5909 229.067 81.2785 229.781 81.9662 230.31 82.7728 230.654 83.6984 230.998 84.6241 231.169 85.7481 231.169 87.0704 231.169 89.6358 230.27 91.6326 228.472 93.0607 226.673 94.4624 223.963 95.1632 220.339 95.1632 219.123 95.1632 218.025 95.0839 217.047 94.9252 216.068 94.793 215.195 94.6211 214.429 94.4095 213.688 94.1979 213.04 93.9731 212.485 93.7351 211.956 93.4971 211.506 93.2723 211.136 93.0607l1.745-4.9192C213.701 88.5911 214.706 89.0011 215.896 89.3713 217.113 89.7151 218.594 89.8871 220.339 89.8871z" fill="#2E8B57"/><path d="M253.347 93.8938C252.342 94.1847 251.046 94.4492 249.459 94.6872 247.872 94.9517 246.206 95.0839 244.46 95.0839 242.688 95.0839 241.207 94.8459 240.017 94.3698 238.854 93.8938 237.928 93.2326 237.24 92.3863 236.553 91.5135 236.063 90.4821 235.773 89.292 235.482 88.1019 235.336 86.7927 235.336 85.3646V73.7411h5.911V84.6505C241.247 86.5547 241.498 87.93 242.001 88.7763 242.503 89.6226 243.442 90.0457 244.817 90.0457 245.241 90.0457 245.69 90.0325 246.166 90.0061 246.642 89.9532 247.065 89.9003 247.436 89.8474V73.7411h5.911V93.8938z" fill="#2E8B57"/><path d="M267.226 95.0046C265.507 94.9781 264.105 94.793 263.021 94.4492 261.963 94.1054 261.117 93.6293 260.482 93.021 259.874 92.3863 259.451 91.6326 259.213 90.7598 259.001 89.8606 258.895 88.8556 258.895 87.7448V64.7756L264.806 63.8235V86.5547C264.806 87.0837 264.846 87.5597 264.925 87.9829 265.004 88.406 265.15 88.7631 265.361 89.054 265.6 89.3449 265.93 89.5829 266.353 89.768 266.776 89.9532 267.345 90.0722 268.059 90.1251L267.226 95.0046z" fill="#2E8B57"/><path d="M26.3952 103.645C19.9798 97.3323 25.8803 81.239 26.0618 79.9771 26.0642 79.96 27.0259 77.8024 27.0618 77.6436 27.311 76.5433 28.6856 74.0359 28.6772 73.6512c2.3032-4.821 3.8424-12.1668 13.6348-24.2832C53.7767 36.3001 67.6457 33.4176 73.7088 32.1574 74.8761 31.9148 78.6842 31.5096 79.2 31.3262c15.6433-2.4199 34.731 8.9256 35.24 10.2189-16.6707-8.354-36.1432-8.4167-37.0463-6.6145C84.1309 48.2416 90.732 55.04 106.621 56.1549 114.884 56.7347 123.489 52.1983 130.778 57.1961 126.405 41.5451 104.698 20.2573 68.1646 30.4991 60.4481 31.8501 53.0971 35.9453 49.1278 38.9167 48.8334 39.1663 48.3518 39.5257 47.7426 39.9804 45.5481 41.618 41.6978 44.4914 38.9777 47.9225 27.4708 61.8855 24.7996 74.8647 24.7996 74.8647S14.0612 93.6444 22.7283 105.978c12.2241 17.396 25.0013 24.002 25.0013 24.002S50.3952 128.832 51.3964 125.979c-8.3338-3.666-15.3341-11.667-25.0012-22.334z" fill="#2E8B57"/><path fill-rule="evenodd" clip-rule="evenodd" d="M73.6168.0C69.1228 9.72506 44.6146 5.81563 51.022 34.2619c7.7372-4.319 14.3104-16.7832 14.3104-16.7832S61.7982 28.9231 52.8456 37.5287C57.1481 37.1566 82.3076 32.133 73.6168.0z" fill="#2E8B57"/><path fill-rule="evenodd" clip-rule="evenodd" d="M70.2957 53.2298c-13.8401 5.0493-11.2143 26.1256-36.3518 14.795C39.614 60.528 53.1807 57.2499 53.1807 57.2499s-9.8658-1.3033-21.8613 8.8565C32.4597 62.2042 41.8059 35.8999 70.2957 53.2298z" fill="#2E8B57"/><path fill-rule="evenodd" clip-rule="evenodd" d="M2.06081 44.9557C9.6176 57.6024-5.57035 74.3573 21.0838 81.4164c-.2499-9.2371-8.2755-22.5475-8.2755-22.5475s8.3049 7.441 11.3809 20.6598C25.7651 75.7813 35.1 49.473 2.06081 44.9557z" fill="#2E8B57"/><path d="M32.0043 123.46C28.6079 124.343 26.2366 122.02 25.3532 118.624 24.4698 115.227 25.4089 112.044 28.8053 111.16 32.2018 110.277 34.7927 112.543 35.6761 115.939 36.5595 119.335 35.4008 122.576 32.0043 123.46z" fill="#B22222"/><path d="M31.7846 122.616C33.2304 122.24 34.1557 121.385 34.6498 120.285 35.1547 119.16 35.2359 117.711 34.8322 116.159 34.4285 114.607 33.6517 113.38 32.6625 112.644 31.6947 111.923 30.4704 111.628 29.0247 112.004 27.5845 112.379 26.7221 113.211 26.2803 114.282 25.8241 115.389 25.7877 116.83 26.1972 118.405L25.3533 118.624 25.276 118.306C24.5431 115.084 25.4837 112.113 28.6479 111.203L28.8052 111.16C32.2016 110.277 34.7927 112.543 35.6761 115.939L35.7531 116.257C36.485 119.536 35.2944 122.604 32.0041 123.46L31.8459 123.499C28.5342 124.27 26.2229 121.967 25.3533 118.624L26.1972 118.405C26.6068 119.979 27.3407 121.22 28.2782 121.964 29.1859 122.684 30.3445 122.99 31.7846 122.616z" fill="#931010"/><path d="M24.0879 103.241C27.4447 104.264 28.2508 107.484 27.2271 110.841 26.2035 114.198 23.7378 116.421 20.3809 115.397c-3.3568-1.024-4.3799-4.31-3.3563-7.667C18.0483 104.373 20.7311 102.217 24.0879 103.241z" fill="#B22222"/><path d="M23.8337 104.075C22.4048 103.639 21.1693 103.883 20.1724 104.563 19.1535 105.258 18.3265 106.45 17.8587 107.984 17.3909 109.518 17.4117 110.97 17.8695 112.115c.448 1.12 1.337 2.012 2.7659 2.44800000000001C22.0588 114.997 23.2292 114.739 24.166 114.057 25.1336 113.352 25.9185 112.143 26.393 110.587L27.2271 110.841 27.1268 111.152C26.0658 114.282 23.7105 116.322 20.5377 115.442L20.3811 115.397c-3.3568-1.024-4.3801-4.31-3.3564-7.667L17.1254 107.419C18.2166 104.242 20.8361 102.249 24.088 103.241L24.2435 103.29C27.4695 104.365 28.2347 107.537 27.2271 110.841L26.393 110.587C26.8676 109.031 26.8911 107.589 26.4811 106.465 26.0842 105.376 25.257 104.509 23.8337 104.075z" fill="#931010"/><path d="M9.64497 96.603C11.084 93.4022 14.38 93.0089 17.5809 94.4478 20.7817 95.8868 22.6753 98.6132 21.2363 101.814 19.7973 105.015 16.4082 105.615 13.2073 104.176 10.0065 102.737 8.20598 99.8039 9.64497 96.603z" fill="#B22222"/><path d="M10.4405 96.9605C9.82797 98.323 9.91427 99.5794 10.4628 100.654 11.0235 101.752 12.1021 102.723 13.5647 103.381 15.0275 104.038 16.4698 104.201 17.6635 103.891 18.8315 103.588 19.8285 102.819 20.441 101.456 21.0512 100.099 20.9426 98.9055 20.3843 97.8901 19.8077 96.8414 18.7071 95.9103 17.2232 95.2432L17.5807 94.4479 17.8769 94.5866C20.848 96.0341 22.574 98.6278 21.3013 101.664L21.2363 101.814C19.7973 105.015 16.4081 105.615 13.2072 104.176L12.9112 104.037C9.89701 102.554 8.25121 99.7038 9.64521 96.603L9.71363 96.4549C11.1868 93.3903 14.4299 93.0314 17.5807 94.4479L17.2232 95.2432C15.7393 94.5761 14.3123 94.3709 13.1452 94.6357 12.0152 94.8921 11.0507 95.6033 10.4405 96.9605z" fill="#931010"/><path d="M27.4905 107.671C26.3349 104.358 28.4581 101.806 31.7719 100.651 35.0856 99.4951 38.335 100.173 39.4906 103.487 40.6461 106.801 38.5976 109.567 35.2839 110.722 31.9701 111.878 28.646 110.985 27.4905 107.671z" fill="#B22222"/><path d="M28.3139 107.384C28.8058 108.795 29.7322 109.648 30.8694 110.051 32.0317 110.463 33.4825 110.427 34.9967 109.899 36.511 109.371 37.6702 108.497 38.3241 107.452 38.9639 106.429 39.159 105.184 38.6672 103.774 38.1772 102.369 37.2777 101.577 36.1743 101.223 35.0345 100.858 33.5951 100.938 32.0589 101.474L31.7718 100.651 32.0822 100.548C35.2349 99.5565 38.2715 100.253 39.4348 103.334L39.4905 103.487C40.646 106.801 38.5975 109.567 35.2838 110.722L34.9732 110.825C31.7645 111.82 28.61 110.881 27.4906 107.671L27.4385 107.517C26.4014 104.278 28.5099 101.788 31.7718 100.651L32.0589 101.474C30.5226 102.01 29.3453 102.842 28.6798 103.836 28.0355 104.799 27.824 105.979 28.3139 107.384z" fill="#931010"/><path d="M24.136 102.595c-3.0637-1.711-3.1693-5.0291-1.4577-8.0928C24.3899 91.4384 27.2705 89.7888 30.3342 91.5004c3.0638 1.7116 3.3674 5.1401 1.6559 8.2038-1.7116 3.0638-4.7903 4.6028-7.8541 2.8908z" fill="#B22222"/><path d="M24.5613 101.834C25.8654 102.562 27.1246 102.586 28.2429 102.132 29.3857 101.669 30.4467 100.679 31.2288 99.2791 32.0109 97.879 32.2981 96.4562 32.0933 95.2401 31.8928 94.0502 31.213 92.9901 29.9088 92.2616 28.6097 91.5359 27.4111 91.5404 26.3511 92.0083 25.2563 92.4917 24.233 93.5073 23.4396 94.9276L22.6783 94.5023 22.8423 94.2194C24.5423 91.3852 27.2762 89.891 30.1907 91.4227L30.3341 91.5003C33.3978 93.2119 33.7016 96.6406 31.99 99.7043L31.8257 99.9871C30.0861 102.861 27.104 104.253 24.136 102.595L23.9945 102.514C21.0694 100.78 20.9936 97.5182 22.6783 94.5023L23.4396 94.9276C22.6461 96.348 22.3177 97.7517 22.4801 98.9374 22.6374 100.085 23.2622 101.108 24.5613 101.834z" fill="#931010"/><path d="M21.1495 94.8073C17.7745 95.7691 15.35 93.5018 14.3882 90.1268 13.4264 86.7517 14.2915 83.547 17.6665 82.5851 21.0416 81.6233 23.6843 83.8284 24.6461 87.2035 25.6079 90.5786 24.5246 93.8455 21.1495 94.8073z" fill="#B22222"/><path d="M20.9104 93.9686C22.347 93.5592 23.2523 92.6837 23.7208 91.5717 24.1995 90.4353 24.247 88.9848 23.8076 87.4426 23.368 85.9003 22.563 84.6925 21.5571 83.9791 20.5728 83.2811 19.342 83.0144 17.9053 83.4238 16.4743 83.8316 15.6314 84.6838 15.2145 85.7649 14.784 86.8816 14.781 88.3232 15.2269 89.8879L14.3883 90.1268 14.3036 89.811C13.4963 86.6062 14.3679 83.615 17.5101 82.6319L17.6664 82.5852C21.0414 81.6234 23.6843 83.8286 24.6461 87.2036L24.7304 87.5196C25.5381 90.7805 24.4189 93.8754 21.1493 94.8072L20.992 94.8502C17.6991 95.6982 15.3351 93.4491 14.3883 90.1268L15.2269 89.8879C15.6728 91.4526 16.4353 92.6761 17.3898 93.398 18.3139 94.097 19.4793 94.3764 20.9104 93.9686z" fill="#931010"/><path d="M162.079 90.997C161.226 91.9877 160.219 92.8336 159.095 93.502 159.021 93.5462 158.936 93.5679 158.85 93.5643 158.763 93.5608 158.68 93.5323 158.61 93.4822 157.022 92.3471 155.846 90.564 155.226 88.2967 154.42 85.3732 154.632 81.9742 155.824 78.7238 157.015 75.4735 159.051 72.7412 161.553 71.0314 163.673 69.5842 165.925 69.0044 168.025 69.3289 168.111 69.3416 168.191 69.379 168.255 69.4366 168.32 69.4942 168.367 69.5694 168.389 69.653 168.412 69.7367 168.409 69.8251 168.382 69.9073 168.355 69.9896 168.305 70.0622 168.237 70.1162 167.565 70.6465 166.945 71.2398 166.386 71.888 164.654 73.9034 162.838 77.3371 164.025 82.2539 164.824 85.5918 164.171 88.5329 162.079 90.997zm9.077-20.386C171.086 70.561 171.003 70.5325 170.916 70.5289 170.83 70.5253 170.745 70.5468 170.671 70.5907 169.547 71.2585 168.539 72.1047 167.687 73.0961 165.595 75.5602 164.941 78.5013 165.745 81.8349 166.931 86.7522 165.116 90.1854 163.384 92.2008 162.825 92.849 162.205 93.4423 161.533 93.9726 161.463 94.0264 161.411 94.0998 161.383 94.1834 161.355 94.267 161.352 94.3571 161.375 94.4422 161.399 94.5272 161.447 94.6035 161.513 94.6611 161.58 94.7188 161.662 94.7553 161.75 94.766 163.317 95.0096 164.964 94.7455 166.58 93.9963 167.151 93.7297 167.699 93.4166 168.218 93.0604 170.721 91.3501 172.756 88.6183 173.947 85.368 175.139 82.1176 175.35 78.7166 174.545 75.7951 173.917 73.5315 172.744 71.746 171.156 70.611z" fill="#B22222"/><path d="M170.671 70.5906C170.745 70.5467 170.831 70.5253 170.917 70.5289 171.002 70.5325 171.085 70.5612 171.155 70.611 172.744 71.7461 173.917 73.5319 174.545 75.7954L174.618 76.0705C175.336 78.9291 175.101 82.2193 173.947 85.368 172.756 88.6183 170.721 91.3501 168.218 93.0604 167.698 93.4166 167.151 93.7296 166.58 93.9963L166.276 94.1313C164.758 94.7767 163.219 94.9945 161.75 94.7662 161.685 94.7581 161.622 94.7354 161.566 94.7003L161.513 94.6611C161.447 94.6034 161.398 94.5272 161.375 94.4421 161.352 94.3571 161.354 94.267 161.382 94.1835 161.41 94.0998 161.463 94.0262 161.533 93.9725 162.121 93.5084 162.669 92.9963 163.171 92.4413L163.384 92.2011C165.116 90.1856 166.931 86.7522 165.745 81.835 164.966 78.6056 165.555 75.7444 167.495 73.3285L167.687 73.0962C168.539 72.1048 169.547 71.2584 170.671 70.5906zM170.873 71.489C169.929 72.0828 169.079 72.8143 168.351 73.6603L168.352 73.6605C166.512 75.8277 165.888 78.3832 166.527 81.343L166.592 81.6306C167.861 86.889 165.908 90.6011 164.045 92.7692L164.044 92.7707C163.676 93.1972 163.283 93.6011 162.868 93.981 163.951 93.9855 165.079 93.7302 166.212 93.2054 166.739 92.959 167.245 92.6704 167.725 92.3414L167.726 92.3405C170.058 90.7467 171.991 88.1727 173.129 85.068 174.266 81.9634 174.454 78.749 173.704 76.0266 173.151 74.0326 172.16 72.4941 170.873 71.489zM161.553 71.0314C163.673 69.5843 165.925 69.0043 168.025 69.3288 168.111 69.3415 168.191 69.3794 168.255 69.4369 168.32 69.4945 168.366 69.5697 168.389 69.6533L168.401 69.7165C168.409 69.7805 168.402 69.8458 168.382 69.9076L168.357 69.9672C168.329 70.0248 168.288 70.0756 168.237 70.1161L167.987 70.3182C167.411 70.7959 166.875 71.3209 166.386 71.888 164.654 73.9035 162.838 77.3373 164.025 82.2541L164.096 82.5658C164.782 85.7753 164.105 88.61 162.078 90.9971 161.226 91.9877 160.219 92.8338 159.095 93.5022 159.04 93.5353 158.978 93.5557 158.914 93.5624L158.85 93.5645C158.785 93.5618 158.722 93.5449 158.665 93.5156L158.61 93.4823C157.022 92.3473 155.846 90.564 155.226 88.2967 154.445 85.4646 154.62 82.1862 155.715 79.029L155.823 78.7238C157.015 75.4735 159.051 72.7412 161.553 71.0314zM166.894 70.114C165.33 70.1103 163.667 70.6435 162.044 71.7511L162.045 71.7513C159.713 73.3446 157.78 75.9192 156.642 79.0238 155.504 82.1286 155.316 85.3409 156.066 88.0652L156.067 88.0669C156.612 90.0617 157.604 91.5984 158.891 92.6039 159.836 92.0086 160.688 91.2757 161.418 90.4282 163.314 88.1922 163.916 85.5424 163.177 82.4571 161.908 77.1997 163.862 73.4877 165.724 71.3199L165.726 71.3184C166.092 70.8943 166.482 70.492 166.894 70.114z" fill="#931010"/></svg>